<svg width="36" height="36" viewBox="0 0 36 36" fill="none" xmlns="http://www.w3.org/2000/svg">
<path d="M35 14.6H1M25.5556 1V7.8M10.4444 1V7.8M10.0667 35H25.9333C29.107 35 30.6937 35 31.906 34.4441C32.9723 33.9552 33.8391 33.1751 34.3823 32.2154C35 31.1243 35 29.6963 35 26.84V12.56C35 9.70373 35 8.27559 34.3823 7.18465C33.8391 6.22502 32.9723 5.44482 31.906 4.95587C30.6937 4.4 29.107 4.4 25.9333 4.4H10.0667C6.89303 4.4 5.30621 4.4 4.09406 4.95587C3.0278 5.44482 2.16091 6.22502 1.61763 7.18465C1 8.27559 1 9.70373 1 12.56V26.84C1 29.6963 1 31.1243 1.61763 32.2154C2.16091 33.1751 3.0278 33.9552 4.09406 34.4441C5.30621 35 6.89303 35 10.0667 35Z" stroke="#8B5CF6" stroke-width="2" stroke-linecap="round" stroke-linejoin="round"/>
</svg>
