<svg width="21" height="20" viewBox="0 0 21 20" fill="none" xmlns="http://www.w3.org/2000/svg">
<path d="M10.5 1.875C8.89303 1.875 7.32214 2.35152 5.986 3.24431C4.64985 4.1371 3.60844 5.40605 2.99348 6.8907C2.37852 8.37535 2.21762 10.009 2.53112 11.5851C2.84463 13.1612 3.61846 14.6089 4.75476 15.7452C5.89106 16.8815 7.3388 17.6554 8.9149 17.9689C10.491 18.2824 12.1247 18.1215 13.6093 17.5065C15.094 16.8916 16.3629 15.8502 17.2557 14.514C18.1485 13.1779 18.625 11.607 18.625 10C18.6227 7.84581 17.766 5.78051 16.2427 4.25727C14.7195 2.73403 12.6542 1.87727 10.5 1.875ZM10.5 16.875C9.14026 16.875 7.81105 16.4718 6.68046 15.7164C5.54987 14.9609 4.66868 13.8872 4.14833 12.6309C3.62798 11.3747 3.49183 9.99237 3.7571 8.65875C4.02238 7.32513 4.67716 6.10013 5.63864 5.13864C6.60013 4.17716 7.82514 3.52237 9.15876 3.2571C10.4924 2.99183 11.8747 3.12798 13.131 3.64833C14.3872 4.16868 15.4609 5.04987 16.2164 6.18045C16.9718 7.31104 17.375 8.64025 17.375 10C17.3729 11.8227 16.6479 13.5702 15.3591 14.8591C14.0702 16.1479 12.3227 16.8729 10.5 16.875ZM8 10C8 10.5247 8.1651 11.0361 8.4719 11.4618C8.7787 11.8874 9.21165 12.2058 9.70943 12.3717C10.2072 12.5376 10.7446 12.5427 11.2454 12.3863C11.7463 12.2298 12.1852 11.9198 12.5 11.5C12.5996 11.3674 12.7477 11.2798 12.9119 11.2564C13.0761 11.233 13.2428 11.2758 13.3754 11.3754C13.508 11.4749 13.5956 11.6231 13.619 11.7873C13.6424 11.9514 13.5996 12.1182 13.5 12.2508C13.0277 12.8802 12.3692 13.3451 11.618 13.5796C10.8668 13.8141 10.0608 13.8064 9.31427 13.5574C8.56771 13.3084 7.9184 12.8309 7.45829 12.1925C6.99818 11.554 6.75059 10.787 6.75059 10C6.75059 9.21302 6.99818 8.44599 7.45829 7.80753C7.9184 7.16908 8.56771 6.69155 9.31427 6.44259C10.0608 6.19363 10.8668 6.18585 11.618 6.42036C12.3692 6.65486 13.0277 7.11976 13.5 7.74922C13.5493 7.81488 13.5852 7.88961 13.6056 7.96914C13.626 8.04866 13.6306 8.13143 13.619 8.21272C13.6074 8.29401 13.58 8.37222 13.5382 8.44289C13.4964 8.51357 13.4411 8.57531 13.3754 8.62461C13.3097 8.67391 13.235 8.70979 13.1555 8.7302C13.0759 8.75062 12.9932 8.75518 12.9119 8.7436C12.8306 8.73203 12.7524 8.70456 12.6817 8.66277C12.611 8.62097 12.5493 8.56566 12.5 8.5C12.1852 8.08024 11.7463 7.77017 11.2454 7.61372C10.7446 7.45727 10.2072 7.46237 9.70943 7.62829C9.21165 7.79422 8.7787 8.11256 8.4719 8.53822C8.1651 8.96389 8 9.47529 8 10Z" fill="white"/>
</svg>
