<?xml version="1.0" encoding="utf-8" ?>
<svg baseProfile="full" height="512px" version="1.1" width="1920px" xmlns="http://www.w3.org/2000/svg" xmlns:ev="http://www.w3.org/2001/xml-events" xmlns:xlink="http://www.w3.org/1999/xlink"><defs /><rect fill="#6255FA" height="100%" width="100%" x="0" y="0" /><line opacity="0.13" stroke="rgb(100%,100%,100%)" stroke-width="2" x1="-1920" x2="-1408" y1="0" y2="512" /><line opacity="0.13" stroke="rgb(100%,100%,100%)" stroke-width="2" x1="-1880" x2="-1368" y1="0" y2="512" /><line opacity="0.13" stroke="rgb(100%,100%,100%)" stroke-width="2" x1="-1840" x2="-1328" y1="0" y2="512" /><line opacity="0.13" stroke="rgb(100%,100%,100%)" stroke-width="2" x1="-1800" x2="-1288" y1="0" y2="512" /><line opacity="0.13" stroke="rgb(100%,100%,100%)" stroke-width="2" x1="-1760" x2="-1248" y1="0" y2="512" /><line opacity="0.13" stroke="rgb(100%,100%,100%)" stroke-width="2" x1="-1720" x2="-1208" y1="0" y2="512" /><line opacity="0.13" stroke="rgb(100%,100%,100%)" stroke-width="2" x1="-1680" x2="-1168" y1="0" y2="512" /><line opacity="0.13" stroke="rgb(100%,100%,100%)" stroke-width="2" x1="-1640" x2="-1128" y1="0" y2="512" /><line opacity="0.13" stroke="rgb(100%,100%,100%)" stroke-width="2" x1="-1600" x2="-1088" y1="0" y2="512" /><line opacity="0.13" stroke="rgb(100%,100%,100%)" stroke-width="2" x1="-1560" x2="-1048" y1="0" y2="512" /><line opacity="0.13" stroke="rgb(100%,100%,100%)" stroke-width="2" x1="-1520" x2="-1008" y1="0" y2="512" /><line opacity="0.13" stroke="rgb(100%,100%,100%)" stroke-width="2" x1="-1480" x2="-968" y1="0" y2="512" /><line opacity="0.13" stroke="rgb(100%,100%,100%)" stroke-width="2" x1="-1440" x2="-928" y1="0" y2="512" /><line opacity="0.13" stroke="rgb(100%,100%,100%)" stroke-width="2" x1="-1400" x2="-888" y1="0" y2="512" /><line opacity="0.13" stroke="rgb(100%,100%,100%)" stroke-width="2" x1="-1360" x2="-848" y1="0" y2="512" /><line opacity="0.13" stroke="rgb(100%,100%,100%)" stroke-width="2" x1="-1320" x2="-808" y1="0" y2="512" /><line opacity="0.13" stroke="rgb(100%,100%,100%)" stroke-width="2" x1="-1280" x2="-768" y1="0" y2="512" /><line opacity="0.13" stroke="rgb(100%,100%,100%)" stroke-width="2" x1="-1240" x2="-728" y1="0" y2="512" /><line opacity="0.13" stroke="rgb(100%,100%,100%)" stroke-width="2" x1="-1200" x2="-688" y1="0" y2="512" /><line opacity="0.13" stroke="rgb(100%,100%,100%)" stroke-width="2" x1="-1160" x2="-648" y1="0" y2="512" /><line opacity="0.13" stroke="rgb(100%,100%,100%)" stroke-width="2" x1="-1120" x2="-608" y1="0" y2="512" /><line opacity="0.13" stroke="rgb(100%,100%,100%)" stroke-width="2" x1="-1080" x2="-568" y1="0" y2="512" /><line opacity="0.13" stroke="rgb(100%,100%,100%)" stroke-width="2" x1="-1040" x2="-528" y1="0" y2="512" /><line opacity="0.13" stroke="rgb(100%,100%,100%)" stroke-width="2" x1="-1000" x2="-488" y1="0" y2="512" /><line opacity="0.13" stroke="rgb(100%,100%,100%)" stroke-width="2" x1="-960" x2="-448" y1="0" y2="512" /><line opacity="0.13" stroke="rgb(100%,100%,100%)" stroke-width="2" x1="-920" x2="-408" y1="0" y2="512" /><line opacity="0.13" stroke="rgb(100%,100%,100%)" stroke-width="2" x1="-880" x2="-368" y1="0" y2="512" /><line opacity="0.13" stroke="rgb(100%,100%,100%)" stroke-width="2" x1="-840" x2="-328" y1="0" y2="512" /><line opacity="0.13" stroke="rgb(100%,100%,100%)" stroke-width="2" x1="-800" x2="-288" y1="0" y2="512" /><line opacity="0.13" stroke="rgb(100%,100%,100%)" stroke-width="2" x1="-760" x2="-248" y1="0" y2="512" /><line opacity="0.13" stroke="rgb(100%,100%,100%)" stroke-width="2" x1="-720" x2="-208" y1="0" y2="512" /><line opacity="0.13" stroke="rgb(100%,100%,100%)" stroke-width="2" x1="-680" x2="-168" y1="0" y2="512" /><line opacity="0.13" stroke="rgb(100%,100%,100%)" stroke-width="2" x1="-640" x2="-128" y1="0" y2="512" /><line opacity="0.13" stroke="rgb(100%,100%,100%)" stroke-width="2" x1="-600" x2="-88" y1="0" y2="512" /><line opacity="0.13" stroke="rgb(100%,100%,100%)" stroke-width="2" x1="-560" x2="-48" y1="0" y2="512" /><line opacity="0.13" stroke="rgb(100%,100%,100%)" stroke-width="2" x1="-520" x2="-8" y1="0" y2="512" /><line opacity="0.13" stroke="rgb(100%,100%,100%)" stroke-width="2" x1="-480" x2="32" y1="0" y2="512" /><line opacity="0.13" stroke="rgb(100%,100%,100%)" stroke-width="2" x1="-440" x2="72" y1="0" y2="512" /><line opacity="0.13" stroke="rgb(100%,100%,100%)" stroke-width="2" x1="-400" x2="112" y1="0" y2="512" /><line opacity="0.13" stroke="rgb(100%,100%,100%)" stroke-width="2" x1="-360" x2="152" y1="0" y2="512" /><line opacity="0.13" stroke="rgb(100%,100%,100%)" stroke-width="2" x1="-320" x2="192" y1="0" y2="512" /><line opacity="0.13" stroke="rgb(100%,100%,100%)" stroke-width="2" x1="-280" x2="232" y1="0" y2="512" /><line opacity="0.13" stroke="rgb(100%,100%,100%)" stroke-width="2" x1="-240" x2="272" y1="0" y2="512" /><line opacity="0.13" stroke="rgb(100%,100%,100%)" stroke-width="2" x1="-200" x2="312" y1="0" y2="512" /><line opacity="0.13" stroke="rgb(100%,100%,100%)" stroke-width="2" x1="-160" x2="352" y1="0" y2="512" /><line opacity="0.13" stroke="rgb(100%,100%,100%)" stroke-width="2" x1="-120" x2="392" y1="0" y2="512" /><line opacity="0.13" stroke="rgb(100%,100%,100%)" stroke-width="2" x1="-80" x2="432" y1="0" y2="512" /><line opacity="0.13" stroke="rgb(100%,100%,100%)" stroke-width="2" x1="-40" x2="472" y1="0" y2="512" /><line opacity="0.13" stroke="rgb(100%,100%,100%)" stroke-width="2" x1="0" x2="512" y1="0" y2="512" /><line opacity="0.13" stroke="rgb(100%,100%,100%)" stroke-width="2" x1="40" x2="552" y1="0" y2="512" /><line opacity="0.13" stroke="rgb(100%,100%,100%)" stroke-width="2" x1="80" x2="592" y1="0" y2="512" /><line opacity="0.13" stroke="rgb(100%,100%,100%)" stroke-width="2" x1="120" x2="632" y1="0" y2="512" /><line opacity="0.13" stroke="rgb(100%,100%,100%)" stroke-width="2" x1="160" x2="672" y1="0" y2="512" /><line opacity="0.13" stroke="rgb(100%,100%,100%)" stroke-width="2" x1="200" x2="712" y1="0" y2="512" /><line opacity="0.13" stroke="rgb(100%,100%,100%)" stroke-width="2" x1="240" x2="752" y1="0" y2="512" /><line opacity="0.13" stroke="rgb(100%,100%,100%)" stroke-width="2" x1="280" x2="792" y1="0" y2="512" /><line opacity="0.13" stroke="rgb(100%,100%,100%)" stroke-width="2" x1="320" x2="832" y1="0" y2="512" /><line opacity="0.13" stroke="rgb(100%,100%,100%)" stroke-width="2" x1="360" x2="872" y1="0" y2="512" /><line opacity="0.13" stroke="rgb(100%,100%,100%)" stroke-width="2" x1="400" x2="912" y1="0" y2="512" /><line opacity="0.13" stroke="rgb(100%,100%,100%)" stroke-width="2" x1="440" x2="952" y1="0" y2="512" /><line opacity="0.13" stroke="rgb(100%,100%,100%)" stroke-width="2" x1="480" x2="992" y1="0" y2="512" /><line opacity="0.13" stroke="rgb(100%,100%,100%)" stroke-width="2" x1="520" x2="1032" y1="0" y2="512" /><line opacity="0.13" stroke="rgb(100%,100%,100%)" stroke-width="2" x1="560" x2="1072" y1="0" y2="512" /><line opacity="0.13" stroke="rgb(100%,100%,100%)" stroke-width="2" x1="600" x2="1112" y1="0" y2="512" /><line opacity="0.13" stroke="rgb(100%,100%,100%)" stroke-width="2" x1="640" x2="1152" y1="0" y2="512" /><line opacity="0.13" stroke="rgb(100%,100%,100%)" stroke-width="2" x1="680" x2="1192" y1="0" y2="512" /><line opacity="0.13" stroke="rgb(100%,100%,100%)" stroke-width="2" x1="720" x2="1232" y1="0" y2="512" /><line opacity="0.13" stroke="rgb(100%,100%,100%)" stroke-width="2" x1="760" x2="1272" y1="0" y2="512" /><line opacity="0.13" stroke="rgb(100%,100%,100%)" stroke-width="2" x1="800" x2="1312" y1="0" y2="512" /><line opacity="0.13" stroke="rgb(100%,100%,100%)" stroke-width="2" x1="840" x2="1352" y1="0" y2="512" /><line opacity="0.13" stroke="rgb(100%,100%,100%)" stroke-width="2" x1="880" x2="1392" y1="0" y2="512" /><line opacity="0.13" stroke="rgb(100%,100%,100%)" stroke-width="2" x1="920" x2="1432" y1="0" y2="512" /><line opacity="0.13" stroke="rgb(100%,100%,100%)" stroke-width="2" x1="960" x2="1472" y1="0" y2="512" /><line opacity="0.13" stroke="rgb(100%,100%,100%)" stroke-width="2" x1="1000" x2="1512" y1="0" y2="512" /><line opacity="0.13" stroke="rgb(100%,100%,100%)" stroke-width="2" x1="1040" x2="1552" y1="0" y2="512" /><line opacity="0.13" stroke="rgb(100%,100%,100%)" stroke-width="2" x1="1080" x2="1592" y1="0" y2="512" /><line opacity="0.13" stroke="rgb(100%,100%,100%)" stroke-width="2" x1="1120" x2="1632" y1="0" y2="512" /><line opacity="0.13" stroke="rgb(100%,100%,100%)" stroke-width="2" x1="1160" x2="1672" y1="0" y2="512" /><line opacity="0.13" stroke="rgb(100%,100%,100%)" stroke-width="2" x1="1200" x2="1712" y1="0" y2="512" /><line opacity="0.13" stroke="rgb(100%,100%,100%)" stroke-width="2" x1="1240" x2="1752" y1="0" y2="512" /><line opacity="0.13" stroke="rgb(100%,100%,100%)" stroke-width="2" x1="1280" x2="1792" y1="0" y2="512" /><line opacity="0.13" stroke="rgb(100%,100%,100%)" stroke-width="2" x1="1320" x2="1832" y1="0" y2="512" /><line opacity="0.13" stroke="rgb(100%,100%,100%)" stroke-width="2" x1="1360" x2="1872" y1="0" y2="512" /><line opacity="0.13" stroke="rgb(100%,100%,100%)" stroke-width="2" x1="1400" x2="1912" y1="0" y2="512" /><line opacity="0.13" stroke="rgb(100%,100%,100%)" stroke-width="2" x1="1440" x2="1952" y1="0" y2="512" /><line opacity="0.13" stroke="rgb(100%,100%,100%)" stroke-width="2" x1="1480" x2="1992" y1="0" y2="512" /><line opacity="0.13" stroke="rgb(100%,100%,100%)" stroke-width="2" x1="1520" x2="2032" y1="0" y2="512" /><line opacity="0.13" stroke="rgb(100%,100%,100%)" stroke-width="2" x1="1560" x2="2072" y1="0" y2="512" /><line opacity="0.13" stroke="rgb(100%,100%,100%)" stroke-width="2" x1="1600" x2="2112" y1="0" y2="512" /><line opacity="0.13" stroke="rgb(100%,100%,100%)" stroke-width="2" x1="1640" x2="2152" y1="0" y2="512" /><line opacity="0.13" stroke="rgb(100%,100%,100%)" stroke-width="2" x1="1680" x2="2192" y1="0" y2="512" /><line opacity="0.13" stroke="rgb(100%,100%,100%)" stroke-width="2" x1="1720" x2="2232" y1="0" y2="512" /><line opacity="0.13" stroke="rgb(100%,100%,100%)" stroke-width="2" x1="1760" x2="2272" y1="0" y2="512" /><line opacity="0.13" stroke="rgb(100%,100%,100%)" stroke-width="2" x1="1800" x2="2312" y1="0" y2="512" /><line opacity="0.13" stroke="rgb(100%,100%,100%)" stroke-width="2" x1="1840" x2="2352" y1="0" y2="512" /><line opacity="0.13" stroke="rgb(100%,100%,100%)" stroke-width="2" x1="1880" x2="2392" y1="0" y2="512" /><line opacity="0.13" stroke="rgb(100%,100%,100%)" stroke-width="2" x1="1920" x2="2432" y1="0" y2="512" /><line opacity="0.13" stroke="rgb(100%,100%,100%)" stroke-width="2" x1="1960" x2="2472" y1="0" y2="512" /><line opacity="0.13" stroke="rgb(100%,100%,100%)" stroke-width="2" x1="2000" x2="2512" y1="0" y2="512" /><line opacity="0.13" stroke="rgb(100%,100%,100%)" stroke-width="2" x1="2040" x2="2552" y1="0" y2="512" /><line opacity="0.13" stroke="rgb(100%,100%,100%)" stroke-width="2" x1="2080" x2="2592" y1="0" y2="512" /><line opacity="0.13" stroke="rgb(100%,100%,100%)" stroke-width="2" x1="2120" x2="2632" y1="0" y2="512" /><line opacity="0.13" stroke="rgb(100%,100%,100%)" stroke-width="2" x1="2160" x2="2672" y1="0" y2="512" /><line opacity="0.13" stroke="rgb(100%,100%,100%)" stroke-width="2" x1="2200" x2="2712" y1="0" y2="512" /><line opacity="0.13" stroke="rgb(100%,100%,100%)" stroke-width="2" x1="2240" x2="2752" y1="0" y2="512" /><line opacity="0.13" stroke="rgb(100%,100%,100%)" stroke-width="2" x1="2280" x2="2792" y1="0" y2="512" /><line opacity="0.13" stroke="rgb(100%,100%,100%)" stroke-width="2" x1="2320" x2="2832" y1="0" y2="512" /><line opacity="0.13" stroke="rgb(100%,100%,100%)" stroke-width="2" x1="2360" x2="2872" y1="0" y2="512" /><line opacity="0.13" stroke="rgb(100%,100%,100%)" stroke-width="2" x1="2400" x2="2912" y1="0" y2="512" /><line opacity="0.13" stroke="rgb(100%,100%,100%)" stroke-width="2" x1="2440" x2="2952" y1="0" y2="512" /><line opacity="0.13" stroke="rgb(100%,100%,100%)" stroke-width="2" x1="2480" x2="2992" y1="0" y2="512" /><line opacity="0.13" stroke="rgb(100%,100%,100%)" stroke-width="2" x1="2520" x2="3032" y1="0" y2="512" /><line opacity="0.13" stroke="rgb(100%,100%,100%)" stroke-width="2" x1="2560" x2="3072" y1="0" y2="512" /><line opacity="0.13" stroke="rgb(100%,100%,100%)" stroke-width="2" x1="2600" x2="3112" y1="0" y2="512" /><line opacity="0.13" stroke="rgb(100%,100%,100%)" stroke-width="2" x1="2640" x2="3152" y1="0" y2="512" /><line opacity="0.13" stroke="rgb(100%,100%,100%)" stroke-width="2" x1="2680" x2="3192" y1="0" y2="512" /><line opacity="0.13" stroke="rgb(100%,100%,100%)" stroke-width="2" x1="2720" x2="3232" y1="0" y2="512" /><line opacity="0.13" stroke="rgb(100%,100%,100%)" stroke-width="2" x1="2760" x2="3272" y1="0" y2="512" /><line opacity="0.13" stroke="rgb(100%,100%,100%)" stroke-width="2" x1="2800" x2="3312" y1="0" y2="512" /><line opacity="0.13" stroke="rgb(100%,100%,100%)" stroke-width="2" x1="2840" x2="3352" y1="0" y2="512" /><line opacity="0.13" stroke="rgb(100%,100%,100%)" stroke-width="2" x1="2880" x2="3392" y1="0" y2="512" /><line opacity="0.13" stroke="rgb(100%,100%,100%)" stroke-width="2" x1="2920" x2="3432" y1="0" y2="512" /><line opacity="0.13" stroke="rgb(100%,100%,100%)" stroke-width="2" x1="2960" x2="3472" y1="0" y2="512" /><line opacity="0.13" stroke="rgb(100%,100%,100%)" stroke-width="2" x1="3000" x2="3512" y1="0" y2="512" /><line opacity="0.13" stroke="rgb(100%,100%,100%)" stroke-width="2" x1="3040" x2="3552" y1="0" y2="512" /><line opacity="0.13" stroke="rgb(100%,100%,100%)" stroke-width="2" x1="3080" x2="3592" y1="0" y2="512" /><line opacity="0.13" stroke="rgb(100%,100%,100%)" stroke-width="2" x1="3120" x2="3632" y1="0" y2="512" /><line opacity="0.13" stroke="rgb(100%,100%,100%)" stroke-width="2" x1="3160" x2="3672" y1="0" y2="512" /><line opacity="0.13" stroke="rgb(100%,100%,100%)" stroke-width="2" x1="3200" x2="3712" y1="0" y2="512" /><line opacity="0.13" stroke="rgb(100%,100%,100%)" stroke-width="2" x1="3240" x2="3752" y1="0" y2="512" /><line opacity="0.13" stroke="rgb(100%,100%,100%)" stroke-width="2" x1="3280" x2="3792" y1="0" y2="512" /><line opacity="0.13" stroke="rgb(100%,100%,100%)" stroke-width="2" x1="3320" x2="3832" y1="0" y2="512" /><line opacity="0.13" stroke="rgb(100%,100%,100%)" stroke-width="2" x1="3360" x2="3872" y1="0" y2="512" /><line opacity="0.13" stroke="rgb(100%,100%,100%)" stroke-width="2" x1="3400" x2="3912" y1="0" y2="512" /><line opacity="0.13" stroke="rgb(100%,100%,100%)" stroke-width="2" x1="3440" x2="3952" y1="0" y2="512" /><line opacity="0.13" stroke="rgb(100%,100%,100%)" stroke-width="2" x1="3480" x2="3992" y1="0" y2="512" /><line opacity="0.13" stroke="rgb(100%,100%,100%)" stroke-width="2" x1="3520" x2="4032" y1="0" y2="512" /><line opacity="0.13" stroke="rgb(100%,100%,100%)" stroke-width="2" x1="3560" x2="4072" y1="0" y2="512" /><line opacity="0.13" stroke="rgb(100%,100%,100%)" stroke-width="2" x1="3600" x2="4112" y1="0" y2="512" /><line opacity="0.13" stroke="rgb(100%,100%,100%)" stroke-width="2" x1="3640" x2="4152" y1="0" y2="512" /><line opacity="0.13" stroke="rgb(100%,100%,100%)" stroke-width="2" x1="3680" x2="4192" y1="0" y2="512" /><line opacity="0.13" stroke="rgb(100%,100%,100%)" stroke-width="2" x1="3720" x2="4232" y1="0" y2="512" /><line opacity="0.13" stroke="rgb(100%,100%,100%)" stroke-width="2" x1="3760" x2="4272" y1="0" y2="512" /><line opacity="0.13" stroke="rgb(100%,100%,100%)" stroke-width="2" x1="3800" x2="4312" y1="0" y2="512" /></svg>