<svg width="36" height="30" viewBox="0 0 36 30" fill="none" xmlns="http://www.w3.org/2000/svg">
<path d="M19.7 7.22222L17.8036 3.75165C17.2578 2.7528 16.9849 2.25336 16.5778 1.88847C16.2177 1.5658 15.7837 1.3204 15.3074 1.17004C14.7686 1 14.1584 1 12.9379 1H6.44C4.53583 1 3.58373 1 2.85643 1.3391C2.21667 1.63736 1.69654 2.1133 1.37058 2.6987C1 3.3642 1 4.2354 1 5.97778V7.22222M1 7.22222H26.84C29.6963 7.22222 31.1243 7.22222 32.2154 7.73086C33.1751 8.17827 33.9552 8.89217 34.4441 9.77027C35 10.7685 35 12.0752 35 14.6889V21.5333C35 24.147 35 25.4536 34.4441 26.452C33.9552 27.3301 33.1751 28.044 32.2154 28.4913C31.1243 29 29.6963 29 26.84 29H9.16C6.30373 29 4.87559 29 3.78465 28.4913C2.82502 28.044 2.04482 27.3301 1.55587 26.452C1 25.4536 1 24.147 1 21.5333V7.22222Z" stroke="#F59E0B" stroke-width="2" stroke-linecap="round" stroke-linejoin="round"/>
</svg>
