
<svg width="768" height="768" viewBox="0 0 768 768" xmlns="http://www.w3.org/2000/svg" fill="none">
  <style>
    .trophy {
      animation: pulse 1.5s infinite ease-in-out;
      transform-origin: center;
    }
    @keyframes pulse {
      0%, 100% { transform: scale(1); fill: #FFD700; }
      50% { transform: scale(1.1); fill: #FFEB3B; }
    }
  </style>
  <rect width="768" height="768" fill="#000"/>
  <!-- Glow Effects -->
  <circle cx="580" cy="200" r="130" fill="#FFEB3B" opacity="0.15"/>
  <circle cx="220" cy="250" r="120" fill="#B9A7FF" opacity="0.2"/>
  <!-- Target -->
  <circle cx="220" cy="250" r="90" fill="#4E5AC7"/>
  <circle cx="220" cy="250" r="50" fill="#2634B8"/>
  <polygon points="220,250 260,280 250,290" fill="#111"/>
  <!-- Trophy with animation -->
  <g class="trophy">
    <rect x="100" y="470" width="100" height="15" fill="#222"/>
    <path d="M110 400 Q150 370 190 400 Q185 420 170 430 Q170 450 140 450 Q110 450 110 430 Q95 420 90 400 Z" fill="#FFD700"/>
    <polygon points="140,410 144,418 152,418 146,424 148,432 140,427 132,432 134,424 128,418 136,418" fill="#fff"/>
  </g>
  <!-- Percentage Tag -->
  <rect x="300" y="480" width="60" height="40" rx="10" fill="#4E5AC7"/>
  <text x="315" y="505" font-size="20" fill="white">%</text>
  <!-- Bar Chart -->
  <rect x="420" y="540" width="20" height="30" fill="#4E5AC7"/>
  <rect x="450" y="510" width="20" height="60" fill="#4E5AC7"/>
  <rect x="480" y="480" width="20" height="90" fill="#4E5AC7"/>
  <!-- Progress Arrow -->
  <polyline points="420,470 470,430 520,490 570,390" stroke="#111" stroke-width="6" fill="none"/>
  <!-- Person studying -->
  <circle cx="590" cy="200" r="40" fill="#1E1E2F"/>
  <path d="M550 250 Q590 230 630 250 Q630 300 590 310 Q550 300 550 250Z" fill="#FFD54F"/>
  <rect x="530" y="320" width="140" height="10" fill="#eee"/>
</svg>
