<svg width="37" height="32" viewBox="0 0 37 32" fill="none" xmlns="http://www.w3.org/2000/svg">
<path d="M25.5 1.82546C28.093 3.1249 29.875 5.82319 29.875 8.94118C29.875 12.0592 28.093 14.7575 25.5 16.0568M29 25.2936C31.6451 26.5005 34.0269 28.4676 36 31M1 31C4.40636 26.6281 9.03106 23.9412 14.125 23.9412C19.2189 23.9412 23.8436 26.6281 27.25 31M22 8.94118C22 13.327 18.4743 16.8824 14.125 16.8824C9.77576 16.8824 6.25 13.327 6.25 8.94118C6.25 4.55539 9.77576 1 14.125 1C18.4743 1 22 4.55539 22 8.94118Z" stroke="#10B981" stroke-width="2" stroke-linecap="round" stroke-linejoin="round"/>
</svg>
