<svg width="36" height="40" viewBox="0 0 36 40" fill="none" xmlns="http://www.w3.org/2000/svg">
<path d="M35 39C35 36.0537 35 34.5808 34.6341 33.3821C33.81 30.6833 31.6839 28.5711 28.9673 27.7524C27.7608 27.3889 26.2781 27.3889 23.3125 27.3889H12.6875C9.72194 27.3889 8.23913 27.3889 7.03258 27.7524C4.31596 28.5711 2.19008 30.6833 1.36601 33.3821C1 34.5808 1 36.0537 1 39M27.5625 10.5C27.5625 15.7467 23.2813 20 18 20C12.7188 20 8.4375 15.7467 8.4375 10.5C8.4375 5.2533 12.7188 1 18 1C23.2813 1 27.5625 5.2533 27.5625 10.5Z" stroke="#3B82F6" stroke-width="2" stroke-linecap="round" stroke-linejoin="round"/>
</svg>
